<svg version="1.1" viewBox="0.0 0.0 960.0 540.0" fill="none" stroke="none" stroke-linecap="square" stroke-miterlimit="10" xmlns:xlink="http://www.w3.org/1999/xlink" xmlns="http://www.w3.org/2000/svg"><clipPath id="g2c6726d18c8_4_1.0"><path d="m0 0l960.0 0l0 540.0l-960.0 0l0 -540.0z" clip-rule="nonzero"/></clipPath><g clip-path="url(#g2c6726d18c8_4_1.0)"><path fill="#000000" fill-opacity="0.0" d="m0 0l960.0 0l0 540.0l-960.0 0z" fill-rule="evenodd"/><path fill="#ff0000" d="m416.6768 222.26035c58.059265 -135.92758 284.4904 0 0 174.76404c-284.49036 -174.76404 -58.059265 -310.69162 0 -174.76404z" fill-rule="evenodd"/><path stroke="#ffffff" stroke-width="16.0" stroke-linejoin="round" stroke-linecap="butt" d="m416.6768 222.26035c58.059265 -135.92758 284.4904 0 0 174.76404c-284.49036 -174.76404 -58.059265 -310.69162 0 -174.76404z" fill-rule="evenodd"/><path fill="#ff5858" d="m550.17 285.00238c46.449524 -108.74501 227.6026 0 0 139.81503c-227.60257 -139.81503 -46.449493 -248.56004 0 -139.81503z" fill-rule="evenodd"/><path stroke="#ffffff" stroke-width="16.0" stroke-linejoin="round" stroke-linecap="butt" d="m550.17 285.00238c46.449524 -108.74501 227.6026 0 0 139.81503c-227.60257 -139.81503 -46.449493 -248.56004 0 -139.81503z" fill-rule="evenodd"/><path fill="#000000" fill-opacity="0.0" d="m318.5287 308.8712l43.15677 0.6261902l10.634735 -26.894684l27.518768 70.67764l17.514465 -43.78296l75.05676 0l10.632629 -26.2706l28.144989 71.93002l18.13855 -45.659424l106.519714 0.39715576" fill-rule="evenodd"/><path stroke="#ffffff" stroke-width="8.0" stroke-linejoin="round" stroke-linecap="butt" d="m318.5287 308.8712l43.15677 0.6261902l10.634735 -26.894684l27.518768 70.67764l17.514465 -43.78296l75.05676 0l10.632629 -26.2706l28.144989 71.93002l18.13855 -45.659424l106.519714 0.39715576" fill-rule="evenodd"/></g></svg>