<svg width="314" height="103" viewBox="0 0 314 103" fill="none" xmlns="http://www.w3.org/2000/svg">
<path d="M26.8 31.435C26.35 31.765 25.645 32.17 24.685 32.65C23.725 33.13 22.585 33.55 21.265 33.91C19.945 34.24 18.505 34.39 16.945 34.36C14.365 34.33 12.055 33.88 10.015 33.01C8.005 32.11 6.28 30.91 4.84 29.41C3.43 27.88 2.35 26.14 1.6 24.19C0.85 22.21 0.475 20.095 0.475 17.845C0.475 15.385 0.865 13.12 1.645 11.05C2.455 8.98 3.565 7.18 4.975 5.65C6.415 4.12 8.125 2.935 10.105 2.095C12.085 1.255 14.245 0.834998 16.585 0.834998C18.655 0.834998 20.515 1.12 22.165 1.69C23.815 2.26 25.195 2.89 26.305 3.58L24.19 8.575C23.35 7.975 22.3 7.39 21.04 6.82C19.78 6.25 18.355 5.965 16.765 5.965C14.845 5.965 13.06 6.49 11.41 7.54C9.79 8.56 8.485 9.94 7.495 11.68C6.505 13.42 6.01 15.385 6.01 17.575C6.01 19.825 6.46 21.835 7.36 23.605C8.26 25.345 9.535 26.725 11.185 27.745C12.865 28.735 14.815 29.23 17.035 29.23C18.745 29.23 20.23 28.975 21.49 28.465C22.78 27.925 23.8 27.325 24.55 26.665L26.8 31.435ZM31.7641 17.62C31.7641 15.37 32.1991 13.24 33.0691 11.23C33.9391 9.19 35.1391 7.405 36.6691 5.875C38.1991 4.315 39.9691 3.085 41.9791 2.185C44.0191 1.285 46.1791 0.834998 48.4591 0.834998C50.7691 0.834998 52.9291 1.285 54.9391 2.185C56.9791 3.085 58.7791 4.315 60.3391 5.875C61.8991 7.405 63.1141 9.19 63.9841 11.23C64.8541 13.24 65.2891 15.37 65.2891 17.62C65.2891 19.96 64.8541 22.135 63.9841 24.145C63.1141 26.155 61.8991 27.94 60.3391 29.5C58.7791 31.03 56.9791 32.23 54.9391 33.1C52.9291 33.94 50.7691 34.36 48.4591 34.36C46.1791 34.36 44.0191 33.94 41.9791 33.1C39.9691 32.23 38.1991 31.045 36.6691 29.545C35.1391 28.015 33.9391 26.23 33.0691 24.19C32.1991 22.15 31.7641 19.96 31.7641 17.62ZM37.2541 17.665C37.2541 19.795 37.7491 21.745 38.7391 23.515C39.7591 25.255 41.1241 26.65 42.8341 27.7C44.5741 28.72 46.5091 29.23 48.6391 29.23C50.7391 29.23 52.6291 28.72 54.3091 27.7C55.9891 26.65 57.3241 25.255 58.3141 23.515C59.3041 21.745 59.7991 19.78 59.7991 17.62C59.7991 15.46 59.2891 13.495 58.2691 11.725C57.2791 9.955 55.9291 8.56 54.2191 7.54C52.5091 6.49 50.6041 5.965 48.5041 5.965C46.4041 5.965 44.4991 6.49 42.7891 7.54C41.0791 8.59 39.7291 10 38.7391 11.77C37.7491 13.54 37.2541 15.505 37.2541 17.665ZM101.13 35.215L75.9752 10.915L77.5502 11.545L77.6402 34H72.2852V0.0699996H72.5102L97.2602 24.37L96.0452 23.965L95.9552 1.195H101.265V35.215H101.13ZM139.099 35.215L113.944 10.915L115.519 11.545L115.609 34H110.254V0.0699996H110.479L135.229 24.37L134.014 23.965L133.924 1.195H139.234V35.215H139.099ZM148.223 1.195H170.003V6.325H153.533V14.965H168.203V20.095H153.533V28.87H170.633V34H148.223V1.195ZM202.186 31.435C201.736 31.765 201.031 32.17 200.071 32.65C199.111 33.13 197.971 33.55 196.651 33.91C195.331 34.24 193.891 34.39 192.331 34.36C189.751 34.33 187.441 33.88 185.401 33.01C183.391 32.11 181.666 30.91 180.226 29.41C178.816 27.88 177.736 26.14 176.986 24.19C176.236 22.21 175.861 20.095 175.861 17.845C175.861 15.385 176.251 13.12 177.031 11.05C177.841 8.98 178.951 7.18 180.361 5.65C181.801 4.12 183.511 2.935 185.491 2.095C187.471 1.255 189.631 0.834998 191.971 0.834998C194.041 0.834998 195.901 1.12 197.551 1.69C199.201 2.26 200.581 2.89 201.691 3.58L199.576 8.575C198.736 7.975 197.686 7.39 196.426 6.82C195.166 6.25 193.741 5.965 192.151 5.965C190.231 5.965 188.446 6.49 186.796 7.54C185.176 8.56 183.871 9.94 182.881 11.68C181.891 13.42 181.396 15.385 181.396 17.575C181.396 19.825 181.846 21.835 182.746 23.605C183.646 25.345 184.921 26.725 186.571 27.745C188.251 28.735 190.201 29.23 192.421 29.23C194.131 29.23 195.616 28.975 196.876 28.465C198.166 27.925 199.186 27.325 199.936 26.665L202.186 31.435ZM206.835 1.195H228.795V6.325H220.335V34H215.025V6.325H206.835V1.195ZM235.41 1.195H240.72V34H235.41V1.195ZM278.581 35.215L253.426 10.915L255.001 11.545L255.091 34H249.736V0.0699996H249.961L274.711 24.37L273.496 23.965L273.406 1.195H278.716V35.215H278.581ZM313.805 30.985C313.385 31.375 312.755 31.78 311.915 32.2C311.105 32.59 310.175 32.95 309.125 33.28C308.105 33.61 307.055 33.865 305.975 34.045C304.895 34.255 303.875 34.36 302.915 34.36C299.405 34.36 296.36 33.67 293.78 32.29C291.2 30.88 289.205 28.975 287.795 26.575C286.385 24.175 285.68 21.445 285.68 18.385C285.68 15.505 286.13 12.985 287.03 10.825C287.93 8.635 289.16 6.805 290.72 5.335C292.28 3.835 294.065 2.71 296.075 1.96C298.115 1.21 300.26 0.834998 302.51 0.834998C304.52 0.834998 306.365 1.075 308.045 1.555C309.725 2.005 311.18 2.575 312.41 3.265L310.655 8.17C310.085 7.84 309.35 7.525 308.45 7.225C307.58 6.895 306.665 6.64 305.705 6.46C304.775 6.28 303.935 6.19 303.185 6.19C300.695 6.19 298.55 6.655 296.75 7.585C294.98 8.515 293.6 9.85 292.61 11.59C291.65 13.33 291.17 15.445 291.17 17.935C291.17 20.155 291.665 22.105 292.655 23.785C293.675 25.435 295.07 26.725 296.84 27.655C298.64 28.585 300.71 29.05 303.05 29.05C304.07 29.05 305.045 28.96 305.975 28.78C306.935 28.6 307.745 28.315 308.405 27.925V22.57H302.285V17.44H313.805V30.985ZM11.815 69.195C15.565 69.195 18.49 70.14 20.59 72.03C22.69 73.89 23.74 76.47 23.74 79.77C23.74 81.09 23.53 82.395 23.11 83.685C22.72 84.975 22.09 86.16 21.22 87.24C20.38 88.29 19.24 89.13 17.8 89.76C16.39 90.39 14.65 90.705 12.58 90.705H7.81V102H2.5V69.195H11.815ZM12.535 85.53C13.675 85.53 14.635 85.335 15.415 84.945C16.195 84.555 16.795 84.075 17.215 83.505C17.665 82.905 17.98 82.275 18.16 81.615C18.34 80.955 18.43 80.385 18.43 79.905C18.43 79.395 18.34 78.825 18.16 78.195C18.01 77.535 17.725 76.92 17.305 76.35C16.885 75.78 16.3 75.3 15.55 74.91C14.8 74.52 13.855 74.325 12.715 74.325H7.81V85.53H12.535ZM34.8677 90.165C34.8677 91.425 35.1977 92.595 35.8577 93.675C36.5177 94.725 37.4027 95.58 38.5127 96.24C39.6527 96.87 40.8977 97.185 42.2477 97.185C43.7177 97.185 45.0077 96.87 46.1177 96.24C47.2577 95.58 48.1577 94.725 48.8177 93.675C49.4777 92.595 49.8077 91.425 49.8077 90.165V69.195H55.0277V90.3C55.0277 92.67 54.4577 94.77 53.3177 96.6C52.1777 98.4 50.6327 99.81 48.6827 100.83C46.7627 101.85 44.6177 102.36 42.2477 102.36C39.9077 102.36 37.7627 101.85 35.8127 100.83C33.8927 99.81 32.3627 98.4 31.2227 96.6C30.1127 94.77 29.5577 92.67 29.5577 90.3V69.195H34.8677V90.165ZM63.4961 69.195H68.8061V96.87H84.9161V102H63.4961V69.195ZM109.076 75.99C107.876 75.36 106.616 74.835 105.296 74.415C104.006 73.965 102.761 73.74 101.561 73.74C99.9408 73.74 98.6658 74.1 97.7358 74.82C96.8058 75.51 96.3408 76.5 96.3408 77.79C96.3408 78.66 96.6558 79.425 97.2858 80.085C97.9458 80.745 98.7858 81.33 99.8058 81.84C100.826 82.35 101.906 82.815 103.046 83.235C104.366 83.715 105.641 84.33 106.871 85.08C108.131 85.8 109.151 86.79 109.931 88.05C110.741 89.28 111.146 90.93 111.146 93C111.146 94.71 110.711 96.285 109.841 97.725C108.971 99.135 107.726 100.26 106.106 101.1C104.486 101.94 102.506 102.36 100.166 102.36C98.1558 102.36 96.1908 102.045 94.2708 101.415C92.3808 100.755 90.6858 99.915 89.1858 98.895L91.5708 94.71C92.6508 95.52 93.9408 96.225 95.4408 96.825C96.9708 97.395 98.3808 97.68 99.6708 97.68C100.631 97.68 101.561 97.53 102.461 97.23C103.361 96.93 104.111 96.435 104.711 95.745C105.311 95.055 105.611 94.14 105.611 93C105.611 92.1 105.341 91.32 104.801 90.66C104.291 90 103.601 89.43 102.731 88.95C101.891 88.47 100.976 88.035 99.9858 87.645C98.9658 87.255 97.9158 86.82 96.8358 86.34C95.7858 85.86 94.8108 85.275 93.9108 84.585C93.0108 83.865 92.2758 82.995 91.7058 81.975C91.1358 80.925 90.8508 79.665 90.8508 78.195C90.8508 76.365 91.2708 74.79 92.1108 73.47C92.9508 72.12 94.1208 71.07 95.6208 70.32C97.1208 69.54 98.8308 69.105 100.751 69.015C103.091 69.015 105.071 69.3 106.691 69.87C108.341 70.44 109.796 71.115 111.056 71.895L109.076 75.99ZM118.032 69.195H139.812V74.325H123.342V82.965H138.012V88.095H123.342V96.87H140.442V102H118.032V69.195Z" fill="#FF0000"/>
</svg>
